<svg xmlns="http://www.w3.org/2000/svg" xmlns:xlink="http://www.w3.org/1999/xlink" aria-hidden="true" role="img" class="iconify iconify--logos" width="32" height="32" preserveAspectRatio="xMidYMid meet" viewBox="0 0 256 256">
<path fill="#F7DF1E" d="M0 0h256v256H0V0Z"></path>
<path d="m67.312 213.932l19.59-11.856c3.78 6.701 7.218 12.371 15.465 12.371c7.905 0 12.89-3.092 12.89-15.12v-81.798h24.057v82.138c0 24.917-14.606 36.259-35.916 36.259c-19.245 0-30.416-9.967-36.087-21.996m85.07-2.576l19.588-11.341c5.157 8.421 11.859 14.607 23.715 14.607c9.969 0 16.325-4.984 16.325-11.858c0-8.248-6.53-11.17-17.528-15.98l-6.013-2.58c-17.357-7.387-28.87-16.667-28.87-36.257c0-18.044 13.747-31.792 35.228-31.792c15.294 0 26.292 5.328 34.196 19.247l-18.732 12.03c-4.125-7.389-8.591-10.31-15.465-10.31c-7.046 0-11.514 4.468-11.514 10.31c0 7.217 4.468 10.14 14.778 14.608l6.014 2.577c20.45 8.765 31.963 17.7 31.963 37.804c0 21.654-17.012 33.51-39.867 33.51c-22.339 0-36.774-10.654-43.819-24.574"></path>


<symbol id="icon-Rectangle-14-1" viewBox="0 0 19 32">
<path fill="none" stroke="#fcd54c" style="stroke: var(--color1, #fcd54c)" stroke-linejoin="miter" stroke-linecap="butt" stroke-miterlimit="4" stroke-width="1.2549" d="M19.451 0.627h-18.824v30.745h18.824"></path>
</symbol>


<symbol id="strelochka-dlya-nikitu" viewBox="0 0 20 32">
<path fill="none" stroke="#fff" style="stroke: var(--color1, #fff)" stroke-linejoin="miter" stroke-linecap="butt" stroke-miterlimit="4" stroke-width="2" d="M18 16.164l-16-14.166M2 30.266l16-14.166"></path>
</symbol>

<symbol id="icon-Rectangle-14-2-1" viewBox="0 0 10 32">
<path fill="none" stroke="#fcd54c" style="stroke: var(--color1, #fcd54c)" stroke-linejoin="miter" stroke-linecap="butt" stroke-miterlimit="4" stroke-width="0.6432" d="M10.452 0.322h-10.131v31.357h10.131"></path>
</symbol>

<symbol id="icon-Line-30-1" viewBox="0 0 2 32">
<path fill="none" stroke="#fff" style="stroke: var(--color1, #fff)" stroke-linejoin="miter" stroke-linecap="butt" stroke-miterlimit="4" stroke-width="2.1333" d="M1.067 0v32"></path>
</symbol>

<symbol id="X-Krestik-dlya-nikinu" viewBox="0 0 34 32">
<path fill="#fff" style="fill: var(--color1, #fff)" d="M28.757 5.067c-0.289-0.289-0.689-0.468-1.131-0.468s-0.841 0.179-1.131 0.468l-21.12 21.12c-0.266 0.285-0.429 0.669-0.429 1.091 0 0.884 0.716 1.6 1.6 1.6 0.422 0 0.806-0.163 1.092-0.43l-0.001 0.001 21.12-21.12c0.289-0.289 0.468-0.689 0.468-1.131s-0.179-0.841-0.468-1.131l0 0zM21.216-2.475c-0.29-0.29-0.69-0.469-1.132-0.469s-0.842 0.179-1.132 0.469l-21.12 21.12c-0.278 0.287-0.449 0.679-0.449 1.111 0 0.884 0.716 1.6 1.6 1.6 0.432 0 0.825-0.171 1.113-0.45l-0 0 21.12-21.12c0.289-0.289 0.468-0.689 0.468-1.131s-0.179-0.841-0.468-1.131l0 0zM36.301 12.608c-0.29-0.29-0.69-0.469-1.132-0.469s-0.842 0.179-1.132 0.469l-21.12 21.12c-0.301 0.291-0.488 0.699-0.488 1.15 0 0.884 0.716 1.6 1.6 1.6 0.452 0 0.86-0.187 1.151-0.489l0-0 21.12-21.118c0.289-0.289 0.468-0.689 0.468-1.131s-0.179-0.841-0.468-1.131l0 0z"></path>
<path fill="#fff" style="fill: var(--color1, #fff)" d="M5.376 5.067c0.289-0.289 0.689-0.468 1.131-0.468s0.841 0.179 1.131 0.468l21.12 21.12c0.266 0.285 0.429 0.669 0.429 1.091 0 0.884-0.716 1.6-1.6 1.6-0.422 0-0.806-0.163-1.092-0.43l0.001 0.001-21.12-21.12c-0.289-0.289-0.468-0.689-0.468-1.131s0.179-0.841 0.468-1.131l-0 0zM12.917-2.475c0.29-0.29 0.69-0.469 1.132-0.469s0.842 0.179 1.132 0.469l21.12 21.12c0.301 0.291 0.488 0.699 0.488 1.15 0 0.884-0.716 1.6-1.6 1.6-0.452 0-0.86-0.187-1.151-0.489l-0-0-21.12-21.12c-0.289-0.289-0.468-0.689-0.468-1.131s0.179-0.841 0.468-1.131l-0 0zM-2.167 12.608c0.29-0.29 0.69-0.469 1.132-0.469s0.842 0.179 1.132 0.469l21.12 21.12c0.301 0.291 0.488 0.699 0.488 1.15 0 0.884-0.716 1.6-1.6 1.6-0.452 0-0.86-0.187-1.151-0.489l-0-0-21.12-21.118c-0.289-0.289-0.468-0.689-0.468-1.131s0.179-0.841 0.468-1.131l-0 0z"></path>
</symbol>

<symbol id="Srtelochka-vverh-dlya-nikitu" viewBox="0 0 64 32">
<path fill="#fff" style="fill: var(--color1, #fff)" d="M31.543 29.888h29.088l-29.088-29.093-29.097 29.093h29.097z"></path>
</symbol>


<symbol id="burger-dlya-nikitu" viewBox="0 0 32 32">
<path d="M6.4 11.733v-2.133h19.2v2.133h-19.2zM6.4 17.067h19.2v-2.133h-19.2v2.133zM6.4 22.4h19.2v-2.133h-19.2v2.133z"></path>
</symbol>


<symbol id="icon-instagram-2-2-1" viewBox="0 0 32 32">
<path fill="#f4f4fd" style="fill: var(--color1, #f4f4fd)" d="M31.969 9.408c-0.076-1.7-0.351-2.869-0.744-3.883-0.424-1.111-1.054-2.058-1.849-2.836l-0.001-0.001c-0.78-0.792-1.724-1.419-2.778-1.826l-0.054-0.018c-1.019-0.393-2.183-0.671-3.883-0.744-1.712-0.080-2.256-0.1-6.599-0.1-4.348 0-4.892 0.019-6.599 0.093-1.699 0.076-2.868 0.351-3.88 0.744-1.112 0.424-2.059 1.054-2.837 1.849l-0.001 0.001c-0.792 0.78-1.419 1.724-1.826 2.778l-0.018 0.054c-0.393 1.019-0.669 2.181-0.744 3.88-0.080 1.715-0.1 2.259-0.1 6.603 0 4.345 0.019 4.889 0.093 6.596 0.076 1.7 0.351 2.868 0.745 3.881 0.426 1.111 1.055 2.057 1.848 2.838l0.001 0.001c0.8 0.813 1.769 1.444 2.832 1.844 1.019 0.393 2.181 0.668 3.883 0.744 1.707 0.075 2.249 0.093 6.595 0.093 4.344 0 4.888-0.019 6.595-0.093 1.7-0.076 2.869-0.351 3.883-0.744 2.157-0.85 3.832-2.526 4.662-4.627l0.019-0.055c0.395-1.019 0.669-2.181 0.744-3.881 0.075-1.707 0.093-2.251 0.093-6.596 0-4.344-0.005-4.888-0.080-6.595zM29.087 22.473c-0.068 1.563-0.331 2.407-0.549 2.969-0.551 1.399-1.639 2.486-3.003 3.025l-0.036 0.013c-0.563 0.22-1.413 0.481-2.969 0.551-1.688 0.075-2.193 0.093-6.464 0.093-4.269 0-4.781-0.019-6.464-0.093-1.563-0.069-2.407-0.331-2.969-0.551-0.721-0.269-1.335-0.676-1.836-1.192l-0.001-0.001c-0.517-0.504-0.924-1.117-1.183-1.803l-0.011-0.034c-0.219-0.563-0.48-1.413-0.549-2.969-0.075-1.688-0.093-2.195-0.093-6.464 0-4.271 0.019-4.783 0.093-6.464 0.069-1.563 0.331-2.407 0.549-2.969 0.257-0.693 0.664-1.325 1.2-1.839 0.504-0.517 1.119-0.923 1.806-1.182l0.034-0.011c0.561-0.219 1.412-0.48 2.968-0.551 1.688-0.075 2.195-0.093 6.464-0.093 4.276 0 4.781 0.019 6.464 0.093 1.563 0.069 2.407 0.332 2.969 0.551 0.693 0.256 1.325 0.663 1.837 1.193 0.532 0.52 0.937 1.144 1.195 1.839 0.219 0.563 0.48 1.413 0.549 2.969 0.075 1.688 0.093 2.193 0.093 6.464 0 4.269-0.019 4.769-0.093 6.457z"></path>
<path fill="#f4f4fd" style="fill: var(--color1, #f4f4fd)" d="M16.059 7.783c-4.539 0.002-8.218 3.681-8.22 8.22v0c0.001 4.54 3.68 8.22 8.22 8.221h0c4.54-0.001 8.221-3.681 8.221-8.221v-0c-0.002-4.54-3.682-8.219-8.221-8.22h-0zM16.059 21.336c-2.945-0.001-5.332-2.388-5.332-5.333s2.388-5.333 5.333-5.333c0 0 0.001 0 0.001 0h-0c2.945 0.001 5.332 2.388 5.332 5.333s-2.388 5.333-5.333 5.333c-0 0-0.001 0-0.001 0h0zM26.524 7.457c0 0.015 0.001 0.033 0.001 0.051 0 1.060-0.86 1.92-1.92 1.92s-1.92-0.86-1.92-1.92c0-0.018 0-0.036 0.001-0.053l-0 0.003c0.028-1.038 0.877-1.869 1.919-1.869s1.891 0.831 1.919 1.867l0 0.003z"></path>
</symbol>

<symbol id="icon-twitter-1-1" viewBox="0 0 32 32">
<path fill="#f4f4fd" style="fill: var(--color1, #f4f4fd)" d="M32 6.079c-1.189 0.521-2.457 0.867-3.78 1.035 1.36-0.817 2.382-2.078 2.874-3.579l0.013-0.046c-1.197 0.723-2.591 1.274-4.076 1.574l-0.084 0.014c-1.2-1.28-2.901-2.078-4.789-2.078-3.622 0-6.559 2.936-6.559 6.559 0 0.002 0 0.004 0 0.006v-0c0 0.52 0.044 1.019 0.152 1.495-5.455-0.265-10.28-2.88-13.523-6.861-0.563 0.95-0.896 2.094-0.897 3.316v0c0 2.272 1.169 4.285 2.913 5.452-1.092-0.030-2.109-0.326-2.997-0.825l0.033 0.017v0.072c0.004 3.164 2.237 5.806 5.213 6.439l0.043 0.008c-0.533 0.145-1.116 0.216-1.72 0.216-0.031 0.001-0.067 0.001-0.104 0.001-0.403 0-0.797-0.041-1.176-0.119l0.037 0.006c0.851 2.597 3.263 4.507 6.131 4.569-2.215 1.745-5.045 2.799-8.121 2.799-0.004 0-0.009 0-0.013 0h0.001c-0.539 0-1.055-0.024-1.571-0.091 2.826 1.846 6.287 2.944 10.004 2.944 0.021 0 0.042-0 0.063-0h-0.003c12.072 0 18.672-10 18.672-18.668 0-0.289-0.011-0.569-0.024-0.848 1.299-0.937 2.391-2.066 3.258-3.358l0.030-0.047z"></path>
</symbol>

<symbol id="icon-facebook-1-1" viewBox="0 0 32 32">
<path fill="#f4f4fd" style="fill: var(--color1, #f4f4fd)" d="M21.329 5.313h2.921v-5.088c-0.504-0.069-2.237-0.225-4.256-0.225-4.212 0-7.097 2.649-7.097 7.519v4.481h-4.648v5.688h4.648v14.312h5.699v-14.311h4.46l0.708-5.688h-5.169v-3.919c0.001-1.644 0.444-2.769 2.735-2.769z"></path>
</symbol>

<symbol id="icon-linkedin-1-1" viewBox="0 0 32 32">
<path fill="#f4f4fd" style="fill: var(--color1, #f4f4fd)" d="M31.992 32h0.008v-11.737c0-5.741-1.236-10.164-7.948-10.164-3.227 0-5.392 1.771-6.276 3.449h-0.093v-2.913h-6.364v21.365h6.627v-10.579c0-2.785 0.528-5.479 3.977-5.479 3.399 0 3.449 3.179 3.449 5.657v10.4h6.62zM0.528 10.636h6.635v21.364h-6.635v-21.364zM3.843 0c-2.122 0.001-3.842 1.721-3.843 3.843v0c0 2.121 1.721 3.879 3.843 3.879s3.843-1.757 3.843-3.879c-0.002-2.122-1.721-3.841-3.843-3.843h-0z"></path>
</symbol>

<symbol id="icon-youtube-1" viewBox="0 0 48 32">
<path fill="#e8e8e8" style="fill: var(--color1, #e8e8e8)" d="M20.389 21.911v-12.827c4.551 2.144 8.078 4.213 12.251 6.446-3.442 1.906-7.701 4.046-12.251 6.382zM45.765 2.704c-0.786-1.033-2.126-1.84-3.55-2.107-4.19-0.795-30.325-0.798-34.514 0-1.143 0.215-2.16 0.731-3.033 1.538-3.685 3.419-2.53 21.755-1.641 24.722 0.373 1.287 0.855 2.213 1.463 2.823 0.784 0.805 1.856 1.358 3.088 1.607 3.451 0.713 21.221 1.111 34.565 0.105 1.248-0.219 2.335-0.798 3.178-1.624l-0.001 0.001c3.406-3.406 3.173-22.773 0.446-27.067z"></path>
</symbol>


<symbol id="yellow-2lapki" viewBox="0 0 43 32">
<path fill="#fcd54c" style="fill: var(--color1, #fcd54c)" d="M10.24 0.606c-5.154 0-8.792 3.234-8.792 8.488 0 5.356 3.941 7.781 7.377 7.781 1.415 0 2.324-0.404 2.931-1.011l0.404 0.303c-1.415 4.648-5.659 8.387-11.52 10.611l6.366 4.851c8.691-3.941 12.935-11.318 12.935-19.2 0-6.669-3.335-11.823-9.701-11.823zM32.674 0.606c-5.154 0-8.792 3.234-8.792 8.488 0 5.356 3.941 7.781 7.377 7.781 1.415 0 2.324-0.404 2.931-1.011l0.404 0.303c-1.415 4.648-5.659 8.387-11.52 10.611l6.366 4.851c8.691-3.941 12.935-11.318 12.935-19.2 0-6.669-3.335-11.823-9.701-11.823z"></path>
</symbol>


<symbol id="yellow-strelka-vniz" viewBox="0 0 48 32">
<path fill="none" stroke="#fcd54c" style="stroke: var(--color1, #fcd54c)" stroke-linejoin="miter" stroke-linecap="butt" stroke-miterlimit="4" stroke-width="2.2857" d="M23.595 28.974l22.914-25.897M0.738 3.081l22.914 25.895"></path>
</symbol>

<symbol id="yellow-strelks-vbok" viewBox="0 0 19 32">
<path fill="none" stroke="#fcd54c" style="stroke: var(--color1, #fcd54c)" stroke-linejoin="miter" stroke-linecap="butt" stroke-miterlimit="4" stroke-width="1.4545" d="M17.455 16.036l-16.479-14.58M0.975 30.582l16.48-14.58"></path>
</symbol>

</svg>